<svg width="80" height="80" viewBox="0 0 80 80" fill="none" xmlns="http://www.w3.org/2000/svg">
<circle cx="40" cy="40" r="36" stroke="black" stroke-opacity="0.08" stroke-width="8"/>
<path fill-rule="evenodd" clip-rule="evenodd" d="M72 40H80C80 17.9086 62.0914 0 40 0V8C57.6731 8 72 22.3269 72 40Z" fill="#805AD5"/>
<path d="M20.5057 47V45.7216L25.3068 40.4659C25.8703 39.8504 26.3343 39.3153 26.6989 38.8608C27.0634 38.4015 27.3333 37.9706 27.5085 37.5682C27.6884 37.161 27.7784 36.7348 27.7784 36.2898C27.7784 35.7784 27.6553 35.3357 27.4091 34.9616C27.1676 34.5876 26.8362 34.2988 26.4148 34.0952C25.9934 33.8916 25.5199 33.7898 24.9943 33.7898C24.4356 33.7898 23.9479 33.9058 23.5312 34.1378C23.1193 34.3651 22.7997 34.6847 22.5724 35.0966C22.3499 35.5085 22.2386 35.9915 22.2386 36.5455H20.5625C20.5625 35.6932 20.759 34.9451 21.152 34.3011C21.545 33.6572 22.08 33.1553 22.7571 32.7955C23.4389 32.4356 24.2036 32.2557 25.0511 32.2557C25.9034 32.2557 26.6586 32.4356 27.3168 32.7955C27.9749 33.1553 28.491 33.6406 28.8651 34.2514C29.2391 34.8622 29.4261 35.5417 29.4261 36.2898C29.4261 36.8248 29.3291 37.348 29.1349 37.8594C28.9455 38.366 28.6141 38.9318 28.1406 39.5568C27.6719 40.1771 27.0208 40.9347 26.1875 41.8295L22.9205 45.3239V45.4375H29.6818V47H20.5057ZM37.1605 47.1989C36.3272 47.1989 35.5767 47.0331 34.9091 46.7017C34.2415 46.3703 33.7064 45.9157 33.304 45.3381C32.9015 44.7604 32.6813 44.1023 32.6435 43.3636H34.348C34.4143 44.0218 34.7126 44.5663 35.2429 44.9972C35.7779 45.4233 36.4171 45.6364 37.1605 45.6364C37.7571 45.6364 38.2874 45.4967 38.7514 45.2173C39.2202 44.938 39.5871 44.5545 39.8523 44.0668C40.1222 43.5743 40.2571 43.018 40.2571 42.3977C40.2571 41.7633 40.1174 41.1974 39.8381 40.7003C39.5634 40.1984 39.1847 39.803 38.7017 39.5142C38.2188 39.2254 37.6671 39.0786 37.0469 39.0739C36.6018 39.0691 36.1449 39.1378 35.6761 39.2798C35.2074 39.4171 34.8215 39.5947 34.5185 39.8125L32.8707 39.6136L33.7514 32.4545H41.3082V34.017H35.2287L34.7173 38.3068H34.8026C35.1009 38.0701 35.4749 37.8736 35.9247 37.7173C36.3745 37.5611 36.8433 37.483 37.331 37.483C38.2211 37.483 39.0142 37.696 39.7102 38.1222C40.411 38.5436 40.9602 39.1212 41.358 39.8551C41.7604 40.589 41.9616 41.4271 41.9616 42.3693C41.9616 43.2973 41.7533 44.1259 41.3366 44.8551C40.9247 45.5795 40.3565 46.1525 39.6321 46.5739C38.9077 46.9905 38.0838 47.1989 37.1605 47.1989ZM52.1978 44.2727V43.5057C52.1978 42.9754 52.3067 42.4901 52.5245 42.0497C52.747 41.6046 53.069 41.2495 53.4904 40.9844C53.9165 40.7145 54.4326 40.5795 55.0387 40.5795C55.6542 40.5795 56.1703 40.7145 56.587 40.9844C57.0037 41.2495 57.3185 41.6046 57.5316 42.0497C57.7447 42.4901 57.8512 42.9754 57.8512 43.5057V44.2727C57.8512 44.803 57.7423 45.2907 57.5245 45.7358C57.3114 46.1761 56.9942 46.5312 56.5728 46.8011C56.1561 47.0663 55.6448 47.1989 55.0387 47.1989C54.4232 47.1989 53.9047 47.0663 53.4833 46.8011C53.0619 46.5312 52.7423 46.1761 52.5245 45.7358C52.3067 45.2907 52.1978 44.803 52.1978 44.2727ZM53.6467 43.5057V44.2727C53.6467 44.7131 53.7508 45.1084 53.9592 45.4588C54.1675 45.8045 54.5273 45.9773 55.0387 45.9773C55.5359 45.9773 55.8862 45.8045 56.0898 45.4588C56.2982 45.1084 56.4023 44.7131 56.4023 44.2727V43.5057C56.4023 43.0653 56.3029 42.6723 56.104 42.3267C55.9052 41.9763 55.5501 41.8011 55.0387 41.8011C54.5415 41.8011 54.1841 41.9763 53.9663 42.3267C53.7532 42.6723 53.6467 43.0653 53.6467 43.5057ZM44.9535 35.9489V35.1818C44.9535 34.6515 45.0624 34.1662 45.2802 33.7259C45.5027 33.2808 45.8247 32.9257 46.2461 32.6605C46.6722 32.3906 47.1883 32.2557 47.7944 32.2557C48.4099 32.2557 48.926 32.3906 49.3427 32.6605C49.7594 32.9257 50.0742 33.2808 50.2873 33.7259C50.5004 34.1662 50.6069 34.6515 50.6069 35.1818V35.9489C50.6069 36.4792 50.498 36.9669 50.2802 37.4119C50.0671 37.8523 49.7499 38.2074 49.3285 38.4773C48.9118 38.7424 48.4004 38.875 47.7944 38.875C47.1789 38.875 46.6604 38.7424 46.239 38.4773C45.8176 38.2074 45.498 37.8523 45.2802 37.4119C45.0624 36.9669 44.9535 36.4792 44.9535 35.9489ZM46.4023 35.1818V35.9489C46.4023 36.3892 46.5065 36.7846 46.7148 37.1349C46.9232 37.4806 47.283 37.6534 47.7944 37.6534C48.2915 37.6534 48.6419 37.4806 48.8455 37.1349C49.0539 36.7846 49.158 36.3892 49.158 35.9489V35.1818C49.158 34.7415 49.0586 34.3485 48.8597 34.0028C48.6609 33.6525 48.3058 33.4773 47.7944 33.4773C47.2972 33.4773 46.9397 33.6525 46.7219 34.0028C46.5089 34.3485 46.4023 34.7415 46.4023 35.1818ZM45.4933 47L55.4933 32.4545H57.1126L47.1126 47H45.4933Z" fill="black"/>
</svg>
