<svg width="56" height="60" viewBox="0 0 56 60" fill="none" xmlns="http://www.w3.org/2000/svg">
<g clip-path="url(#clip0_902_2017)">
<path d="M2.5 42.5L13 56.5L53.5 55V11.5L38.5 2L3.5 5.5L2.5 42.5Z" fill="white"/>
<path d="M20.0102 1.88403C10.8899 2.56341 3.13662 3.18821 2.77208 3.26137C1.75 3.44487 0.820204 4.14283 0.382993 5.06145L0 5.86974L0.0369149 25.134L0.0911338 44.3983L0.674852 45.5921C1.00363 46.2529 3.22891 49.3386 5.65491 52.5149C10.4527 58.7768 10.7988 59.1263 12.6226 59.3098C13.1521 59.3644 17.1285 59.1809 21.4338 58.9243C25.7574 58.649 32.6882 58.2263 36.8481 57.9882C54.6145 56.9024 53.702 56.9941 54.723 56.1127C56 55.0477 55.9089 56.7921 55.9631 33.3783C56 13.5264 55.9815 12.2234 55.6897 11.6172C55.3436 10.9378 54.723 10.4605 46.6236 4.73047C41.2063 0.910828 40.8233 0.708755 38.3962 0.671592C37.3937 0.635591 29.1121 1.18606 20.0102 1.88403ZM40.513 4.39949C41.279 4.74789 46.8797 8.67785 47.6999 9.43156C47.9191 9.65222 47.9918 9.83571 47.8822 9.94603C47.6272 10.1667 12.9675 12.242 11.9651 12.0945C11.5094 12.0213 10.8345 11.7461 10.4516 11.4883C8.86421 10.4048 4.92469 7.15418 4.92469 6.9161C4.92469 6.2913 4.79664 6.2913 20.2479 5.17177C23.2034 4.9697 28.0554 4.60272 31.0109 4.36348C37.4122 3.84901 39.3283 3.86759 40.513 4.39949ZM51.531 14.4451C51.7859 14.7017 52.0051 15.1976 52.0778 15.6749C52.132 16.1162 52.1689 24.3431 52.132 33.9288C52.0778 50.3826 52.0593 51.4116 51.749 51.8889C51.5667 52.1827 51.2022 52.4951 50.9277 52.5869C50.1628 52.8993 13.8443 54.9746 13.0967 54.7539C12.7507 54.6622 12.2754 54.3684 12.0204 54.1117L11.5821 53.6344L11.5279 35.895C11.4909 23.4443 11.5279 17.9349 11.6744 17.439C11.7839 17.072 12.0574 16.6307 12.295 16.4844C12.6238 16.2637 14.7764 16.0802 22.1824 15.6401C27.3817 15.3462 35.4257 14.8504 40.0412 14.5751C51.0199 13.8946 50.9842 13.8946 51.531 14.4451Z" fill="black"/>
<path d="M41.7716 20.5235C39.8013 20.6524 38.0501 20.8359 37.8494 20.9462C37.2472 21.2586 36.8827 21.7731 36.81 22.3607C36.7558 22.9669 36.9381 23.0401 38.9072 23.2793L39.7644 23.3897V31.231C39.7644 35.8949 39.6917 38.9806 39.6006 38.8889C39.5094 38.7785 36.9196 34.8126 33.8361 30.0743C30.7537 25.3186 28.1996 21.4061 28.1627 21.3701C28.1258 21.3329 26.1197 21.4433 23.7121 21.6093C20.7566 21.8114 19.1335 21.9949 18.8047 22.1784C18.2752 22.4536 17.6915 23.4268 17.6915 24.0702C17.6915 24.4558 18.3848 24.6578 19.8441 24.6578H20.6101V47.2087L19.37 47.5943C18.4033 47.8881 18.0745 48.0716 17.9107 48.4386C17.6189 49.0634 17.6373 49.6324 17.9292 49.6324C18.0388 49.6324 20.1002 49.5035 22.4709 49.3572C27.1591 49.0819 27.6874 48.953 28.18 47.9798C28.3265 47.686 28.4534 47.3736 28.4534 47.2819C28.4534 47.2087 27.8155 46.988 27.0483 46.8046C26.2639 46.6211 25.4794 46.4376 25.3156 46.4004C25.0053 46.3087 24.9868 45.7396 24.9868 37.8425V29.3764L30.5322 38.1363C36.3509 47.3179 37.0811 48.3654 37.9751 48.8241C39.0884 49.4118 41.9158 49.0076 43.3382 48.0716L43.7766 47.7963L43.8135 35.2725L43.8677 22.73L44.8344 22.5465C45.9834 22.3259 46.5129 21.794 46.5129 20.8754C46.5129 20.2877 46.476 20.2506 45.9292 20.2691C45.6027 20.2842 43.7235 20.3946 41.7716 20.5235Z" fill="black"/>
</g>
<defs>
<clipPath id="clip0_902_2017">
<rect width="56" height="60" fill="white"/>
</clipPath>
</defs>
</svg>
