<svg width="60" height="60" viewBox="0 0 60 60" fill="none" xmlns="http://www.w3.org/2000/svg">
<path d="M0 17.8723C0 11.6164 0 8.48848 1.21748 6.09904C2.28841 3.99723 3.99723 2.28841 6.09904 1.21748C8.48848 0 11.6164 0 17.8723 0H42.1277C48.3836 0 51.5115 0 53.901 1.21748C56.0028 2.28841 57.7116 3.99723 58.7825 6.09904C60 8.48848 60 11.6164 60 17.8723V42.1277C60 48.3836 60 51.5115 58.7825 53.901C57.7116 56.0028 56.0028 57.7116 53.901 58.7825C51.5115 60 48.3836 60 42.1277 60H17.8723C11.6164 60 8.48848 60 6.09904 58.7825C3.99723 57.7116 2.28841 56.0028 1.21748 53.901C0 51.5115 0 48.3836 0 42.1277V17.8723Z" fill="#1C1F22"/>
<g clip-path="url(#clip0_902_1991)">
<path d="M23.1263 51.25C26.9205 51.25 29.9999 48.0767 29.9999 44.1667V37.0833H23.1263C19.3321 37.0833 16.2527 40.2567 16.2527 44.1667C16.2527 48.0767 19.3321 51.25 23.1263 51.25Z" fill="#0ACF83"/>
<path d="M16.2527 30C16.2527 26.09 19.3321 22.9167 23.1263 22.9167H29.9999V37.0833H23.1263C19.3321 37.0833 16.2527 33.91 16.2527 30Z" fill="#A259FF"/>
<path d="M16.2526 15.8334C16.2526 11.9234 19.3319 8.75003 23.1262 8.75003H29.9998V22.9167H23.1262C19.3319 22.9167 16.2526 19.7434 16.2526 15.8334Z" fill="#F24E1E"/>
<path d="M30 8.75003H36.8736C40.6679 8.75003 43.7473 11.9234 43.7473 15.8334C43.7473 19.7434 40.6679 22.9167 36.8736 22.9167H30V8.75003Z" fill="#FF7262"/>
<path d="M43.7473 30C43.7473 33.91 40.6679 37.0833 36.8736 37.0833C33.0794 37.0833 30 33.91 30 30C30 26.09 33.0794 22.9167 36.8736 22.9167C40.6679 22.9167 43.7473 26.09 43.7473 30Z" fill="#1ABCFE"/>
</g>
<defs>
<clipPath id="clip0_902_1991">
<rect width="27.5" height="42.5" fill="white" transform="translate(16.25 8.75)"/>
</clipPath>
</defs>
</svg>
