<svg width="52" height="60" viewBox="0 0 52 60" fill="none" xmlns="http://www.w3.org/2000/svg">
<path d="M49.7453 14.3745L51.1554 10.9174C51.1554 10.9174 49.3814 9.00682 47.1979 6.82335C45.0144 4.63988 40.42 5.91357 40.42 5.91357L35.1888 0H16.8112L11.5345 5.95906C11.5345 5.95906 6.94011 4.68537 4.75664 6.86884C2.57316 9.05231 0.799093 10.9629 0.799093 10.9629L2.20925 14.42L0.435181 19.5148C0.435181 19.5148 5.71191 39.439 6.30326 41.8954C7.53147 46.6717 8.35027 48.5368 11.8074 50.9932C15.2646 53.4496 21.4966 57.6346 22.5428 58.2714C23.5436 58.9083 24.8628 60 26 60C27.1372 60 28.4109 58.9083 29.4572 58.2714C30.4579 57.6346 36.7354 53.4041 40.1926 50.9932C43.6497 48.5823 44.4685 46.7172 45.6967 41.8954C46.3336 39.439 51.5648 19.5148 51.5648 19.5148L49.7453 14.3745Z" fill="url(#paint0_linear_764_932)"/>
<path d="M38.9643 9.73465C38.9643 9.73465 45.6967 17.8772 45.6967 19.6513C45.6967 21.4253 44.8324 21.8347 43.9681 22.7445C43.1038 23.6543 39.3737 27.6118 38.9188 28.1122C38.4185 28.6126 37.4632 29.3859 38.0091 30.7961C38.6004 32.1607 39.4647 33.9348 38.5094 35.7544C37.5542 37.5284 35.9166 38.7566 34.8703 38.5292C33.8241 38.3472 31.3222 37.0281 30.4124 36.4367C29.5026 35.8453 26.6368 33.4799 26.6368 32.5701C26.6368 31.6604 29.6391 30.0228 30.1849 29.6588C30.7308 29.2949 33.2327 27.8393 33.2782 27.2934C33.3237 26.7475 33.3237 26.5656 32.5504 25.1554C31.8225 23.7453 30.4579 21.8802 30.6853 20.652C30.9128 19.4238 33.0507 18.787 34.5974 18.1956C36.144 17.6043 39.1008 16.5125 39.4647 16.3306C39.8286 16.1486 39.7376 16.0121 38.6004 15.8757C37.4632 15.7847 34.3244 15.3298 32.8688 15.7392C31.4131 16.1486 29.0022 16.74 28.7748 17.0584C28.5928 17.3768 28.4109 17.3768 28.5928 18.514C28.7748 19.6058 29.8665 24.9735 29.9575 25.9287C30.0485 26.884 30.2759 27.5209 29.2297 27.7483C28.2289 27.9757 26.5003 28.3851 25.909 28.3851C25.3176 28.3851 23.589 27.9757 22.5883 27.7483C21.5875 27.5209 21.7695 26.884 21.8605 25.9287C21.9514 24.9735 22.9977 19.6513 23.2251 18.514C23.4071 17.4223 23.2706 17.3768 23.0432 17.0584C22.8612 16.74 20.4048 16.1486 18.9492 15.7392C17.4935 15.3298 14.3548 15.7392 13.2175 15.8757C12.0803 15.9666 11.9893 16.1486 12.3533 16.3306C12.7172 16.5125 15.674 17.6043 17.2206 18.1956C18.7672 18.787 20.9052 19.4238 21.1326 20.652C21.3601 21.8802 20.0409 23.7453 19.2676 25.1554C18.5398 26.5656 18.4943 26.7021 18.5398 27.2934C18.5852 27.8393 21.0871 29.2949 21.633 29.6588C22.1789 30.0228 25.1812 31.6604 25.1812 32.5701C25.1812 33.4799 22.3153 35.8453 21.4056 36.4367C20.4958 37.0281 18.0394 38.3018 16.9476 38.5292C15.9014 38.7112 14.2638 37.5284 13.3085 35.7544C12.3533 33.9803 13.2175 32.2062 13.8089 30.7961C14.4003 29.4314 13.3995 28.6581 12.8991 28.1122C12.3987 27.6118 8.71413 23.6543 7.84984 22.7445C6.98555 21.8347 6.16675 21.3798 6.16675 19.6513C6.16675 17.9227 12.8991 9.73465 12.8991 9.73465C12.8991 9.73465 18.5852 10.8264 19.3586 10.8264C20.1319 10.8264 21.7695 10.1895 23.3161 9.68916C24.8627 9.18878 25.8635 9.18879 25.8635 9.18879C25.8635 9.18879 26.8642 9.18878 28.4109 9.68916C29.9575 10.1895 31.5951 10.8264 32.3684 10.8264C33.1417 10.8264 38.9643 9.73465 38.9643 9.73465ZM33.915 40.8946C34.3244 41.1676 34.097 41.6679 33.6876 41.8954C33.3237 42.1683 28.1834 46.1259 27.7285 46.5807C27.2282 47.0356 26.5003 47.718 26 47.718C25.4996 47.718 24.7718 46.9902 24.2714 46.5807C23.771 46.1259 18.6762 42.1683 18.3123 41.8954C17.9484 41.6224 17.6755 41.1221 18.0849 40.8946C18.4943 40.6217 19.8134 39.9848 21.5875 39.0296C23.4071 38.0743 25.636 37.301 26 37.301C26.3639 37.301 28.5928 38.0743 30.4124 39.0296C32.1865 39.9848 33.5056 40.6672 33.915 40.8946Z" fill="white"/>
<path d="M40.4198 5.95906L35.1886 0H16.8111L11.5343 5.95906C11.5343 5.95906 6.93994 4.68537 4.75647 6.86884C4.75647 6.86884 10.8975 6.32297 12.99 9.73465C12.99 9.73465 18.6761 10.8264 19.4494 10.8264C20.2227 10.8264 21.8603 10.1895 23.407 9.68916C24.9536 9.18878 25.9543 9.18878 25.9543 9.18878C25.9543 9.18878 26.9551 9.18878 28.5017 9.68916C30.0484 10.1895 31.686 10.8264 32.4593 10.8264C33.2326 10.8264 38.9187 9.73465 38.9187 9.73465C41.0112 6.32297 47.1522 6.86884 47.1522 6.86884C45.0142 4.68537 40.4198 5.95906 40.4198 5.95906Z" fill="url(#paint1_linear_764_932)"/>
<defs>
<linearGradient id="paint0_linear_764_932" x1="0.465128" y1="29.9866" x2="51.5549" y2="29.9866" gradientUnits="userSpaceOnUse">
<stop stop-color="#FF5500"/>
<stop offset="0.41" stop-color="#FF5500"/>
<stop offset="0.582" stop-color="#FF2000"/>
<stop offset="1" stop-color="#FF2000"/>
</linearGradient>
<linearGradient id="paint1_linear_764_932" x1="5.70394" y1="5.39477" x2="47.2179" y2="5.39477" gradientUnits="userSpaceOnUse">
<stop stop-color="#FF452A"/>
<stop offset="1" stop-color="#FF2000"/>
</linearGradient>
</defs>
</svg>
