<svg width="12" height="12" viewBox="0 0 12 12" fill="none" xmlns="http://www.w3.org/2000/svg">
<path d="M11.1154 6.84201C10.6861 6.94935 10.2567 7.00302 9.82735 7.00302C7.14382 7.00302 4.99699 4.85619 4.99699 2.17266C4.99699 1.74329 5.05066 1.31393 5.158 0.884563C5.21167 0.723551 5.158 0.508868 4.99699 0.347856C4.83598 0.186844 4.67496 0.133173 4.46028 0.186844C1.93776 0.938234 0.166626 3.29974 0.166626 5.92961C0.166626 9.20352 2.79649 11.8334 6.0704 11.8334C8.70027 11.8334 11.0618 10.0623 11.7595 7.48606C11.8132 7.32505 11.7595 7.11036 11.5985 6.94935C11.4911 6.84201 11.2765 6.78834 11.1154 6.84201Z" fill="#2D3748"/>
</svg>
