<svg width="60" height="60" viewBox="0 0 60 60" fill="none" xmlns="http://www.w3.org/2000/svg">
<path d="M1.71473 21.0194C1.71473 21.0194 0.294402 19.9977 1.99879 18.6334L5.96978 15.0898C5.96978 15.0898 7.10604 13.8968 8.3074 14.9362L44.9518 42.6235V55.9001C44.9518 55.9001 44.934 57.9849 42.2532 57.7546L1.71473 21.0194Z" fill="#2489CA"/>
<path d="M11.1599 29.5773L1.71468 38.1469C1.71468 38.1469 0.744127 38.8674 1.71468 40.1549L6.09995 44.1355C6.09995 44.1355 7.14152 45.2517 8.68021 43.982L18.6935 36.4046L11.1599 29.5773Z" fill="#1070B3"/>
<path d="M27.7423 29.6481L45.0644 16.4482L44.952 3.24245C44.952 3.24245 44.2122 0.36033 41.7444 1.86045L18.6936 22.7972L27.7423 29.6481Z" fill="#0877B9"/>
<path d="M42.2533 57.7724C43.2594 58.8 44.4785 58.4634 44.4785 58.4634L57.9775 51.8251C59.7056 50.6498 59.4629 49.191 59.4629 49.191V9.55001C59.4629 7.80774 57.6757 7.20533 57.6757 7.20533L45.9758 1.57693C43.4192 2.95639e-05 41.7444 1.86042 41.7444 1.86042C41.7444 1.86042 43.8985 0.313047 44.9519 3.24242V55.658C44.9519 56.0183 44.875 56.3727 44.7211 56.6916C44.4134 57.3117 43.7447 57.8905 42.1409 57.6484L42.2533 57.7724Z" fill="#3C99D4"/>
</svg>
